<?xml version="1.0" encoding="utf-8" standalone="no"?>
<!DOCTYPE svg PUBLIC "-//W3C//DTD SVG 1.1//EN"
  "http://www.w3.org/Graphics/SVG/1.1/DTD/svg11.dtd">
<svg xmlns:xlink="http://www.w3.org/1999/xlink" width="720pt" height="288pt" viewBox="0 0 720 288" xmlns="http://www.w3.org/2000/svg" version="1.1">
 <metadata>
  <rdf:RDF xmlns:dc="http://purl.org/dc/elements/1.1/" xmlns:cc="http://creativecommons.org/ns#" xmlns:rdf="http://www.w3.org/1999/02/22-rdf-syntax-ns#">
   <cc:Work>
    <dc:type rdf:resource="http://purl.org/dc/dcmitype/StillImage"/>
    <dc:date>2025-05-07T14:36:01.604944</dc:date>
    <dc:format>image/svg+xml</dc:format>
    <dc:creator>
     <cc:Agent>
      <dc:title>Matplotlib v3.10.1, https://matplotlib.org/</dc:title>
     </cc:Agent>
    </dc:creator>
   </cc:Work>
  </rdf:RDF>
 </metadata>
 <defs>
  <style type="text/css">*{stroke-linejoin: round; stroke-linecap: butt}</style>
 </defs>
 <g id="figure_1">
  <g id="patch_1">
   <path d="M 0 288 
L 720 288 
L 720 0 
L 0 0 
z
" style="fill: #ffffff"/>
  </g>
  <g id="axes_1">
   <g id="patch_2">
    <path d="M 594.480466 153.662224 
Q 536.049509 137.949729 476.577602 126.807405 
" clip-path="url(#p78538da55e)" style="fill: none; stroke: #0000ff; stroke-width: 2; stroke-linecap: round"/>
    <path d="M 591.137053 150.692107 
L 594.480466 153.662224 
L 590.098325 154.554884 
" clip-path="url(#p78538da55e)" style="fill: none; stroke: #0000ff; stroke-width: 2; stroke-linecap: round"/>
    <path d="M 480.140894 129.509802 
L 476.577602 126.807405 
L 480.877495 125.57821 
" clip-path="url(#p78538da55e)" style="fill: none; stroke: #0000ff; stroke-width: 2; stroke-linecap: round"/>
   </g>
   <g id="line2d_1">
    <path d="M 598.57438 143.216021 
L 598.57438 137.970834 
L 589.270751 135.754085 
L 578.741193 133.279835 
L 567.024331 130.53129 
L 554.188458 127.474863 
L 540.288993 124.088163 
L 525.393111 120.410375 
L 509.573024 116.458292 
L 492.908221 112.270539 
L 475.470914 107.898618 
L 457.35011 103.381152 
L 438.630895 98.77412 
L 419.402276 94.144697 
L 399.758856 89.548861 
L 379.791321 85.048189 
L 359.599872 80.693061 
L 339.279112 76.550651 
L 318.925325 72.676938 
L 298.638712 69.161487 
L 278.513877 66.099462 
L 258.652701 63.558038 
L 239.144189 61.609986 
L 220.082946 60.328078 
L 201.565254 59.762695 
L 183.674521 59.997805 
L 166.494156 61.07819 
L 150.120441 63.026242 
L 134.614393 65.886744 
L 120.05942 69.626109 
L 106.529414 74.18276 
L 94.079793 79.483925 
L 82.777731 85.428843 
L 72.668012 91.899959 
L 63.811651 98.779718 
L 56.243356 105.961761 
L 50.001752 113.328533 
L 45.114828 120.819018 
L 41.604975 128.286552 
L 39.494585 135.79327 
L 38.789256 143.882165 
L 39.494585 150.246922 
L 41.604975 157.221845 
L 45.114828 164.286333 
L 50.001752 171.401762 
L 56.243356 178.550218 
L 63.811651 185.659489 
L 72.668012 192.617618 
L 82.777731 199.295854 
L 94.079793 205.554252 
L 106.529414 211.258463 
L 120.05942 216.279735 
L 134.614393 220.522906 
L 150.120441 223.887215 
L 166.494156 226.327878 
L 183.674521 227.789477 
L 201.565254 228.237305 
L 220.082946 227.632737 
L 239.144189 225.952822 
L 258.652701 223.17069 
L 278.513877 219.296977 
L 298.638712 214.36527 
L 318.925325 208.442743 
L 339.279112 201.669343 
L 359.599872 194.246593 
L 379.791321 186.443188 
L 399.758856 178.583805 
L 419.402276 171.01495 
L 438.630895 164.051223 
L 457.35011 157.943968 
L 475.470914 152.816336 
L 492.908221 148.825068 
L 509.573024 145.897392 
L 525.393111 143.966133 
L 540.288993 142.992107 
L 554.188458 142.891346 
L 567.024331 143.501511 
L 578.741193 144.67706 
L 589.270751 146.339622 
L 598.57438 148.203706 
L 598.57438 143.216021 
" clip-path="url(#p78538da55e)" style="fill: none; stroke: #000000; stroke-width: 2; stroke-linecap: square"/>
   </g>
   <g id="line2d_2">
    <path d="M 598.57438 137.970834 
L 594.508846 136.998541 
L 590.442065 136.031522 
L 586.373821 135.070712 
L 582.304255 134.115453 
L 578.234518 133.160921 
L 574.164458 132.207758 
L 570.09448 131.254254 
L 566.02581 130.295255 
L 561.958219 129.331593 
L 557.891768 128.363121 
L 553.826996 127.387778 
L 549.764198 126.404227 
L 545.702945 125.414179 
L 541.64268 124.420092 
L 537.58302 123.423627 
L 533.524205 122.423672 
L 529.466196 121.420438 
L 525.408916 120.4143 
L 521.352465 119.404842 
L 517.296814 118.392141 
L 513.241687 117.377326 
L 509.186814 116.361513 
L 505.132388 115.343932 
L 501.078405 114.324577 
L 497.024515 113.304847 
L 492.970369 112.28614 
L 488.915977 111.268412 
L 484.861514 110.25096 
L 480.806853 109.234306 
" clip-path="url(#p78538da55e)" style="fill: none; stroke: #ff0000; stroke-width: 5; stroke-linecap: square"/>
   </g>
   <g id="line2d_3">
    <defs>
     <path id="m74eac45de9" d="M 0 5 
C 1.326016 5 2.597899 4.473168 3.535534 3.535534 
C 4.473168 2.597899 5 1.326016 5 0 
C 5 -1.326016 4.473168 -2.597899 3.535534 -3.535534 
C 2.597899 -4.473168 1.326016 -5 0 -5 
C -1.326016 -5 -2.597899 -4.473168 -3.535534 -3.535534 
C -4.473168 -2.597899 -5 -1.326016 -5 0 
C -5 1.326016 -4.473168 2.597899 -3.535534 3.535534 
C -2.597899 4.473168 -1.326016 5 0 5 
z
" style="stroke: #008000"/>
    </defs>
    <g clip-path="url(#p78538da55e)">
     <use xlink:href="#m74eac45de9" x="598.57438" y="137.970834" style="fill: #008000; stroke: #008000"/>
     <use xlink:href="#m74eac45de9" x="480.806853" y="109.234306" style="fill: #008000; stroke: #008000"/>
    </g>
   </g>
   <g id="patch_3">
    <path d="M 616.915898 132.850448 
Q 608.710129 135.141246 601.581218 137.131418 
" style="fill: none; stroke: #000000; stroke-linecap: round"/>
    <path d="M 608.16691 138.407606 
L 601.581218 137.131418 
L 606.553583 132.628577 
" style="fill: none; stroke: #000000; stroke-linecap: round"/>
   </g>
   <g id="text_1">
    <!-- start_nd_arc -->
    <g transform="translate(598.57438 126.775132) scale(0.15 -0.15)">
     <defs>
      <path id="DejaVuSansMono-73" d="M 3041 3378 
L 3041 2816 
Q 2794 2959 2544 3031 
Q 2294 3103 2034 3103 
Q 1644 3103 1451 2976 
Q 1259 2850 1259 2591 
Q 1259 2356 1403 2240 
Q 1547 2125 2119 2016 
L 2350 1972 
Q 2778 1891 2998 1647 
Q 3219 1403 3219 1013 
Q 3219 494 2850 201 
Q 2481 -91 1825 -91 
Q 1566 -91 1281 -36 
Q 997 19 666 128 
L 666 722 
Q 988 556 1281 473 
Q 1575 391 1838 391 
Q 2219 391 2428 545 
Q 2638 700 2638 978 
Q 2638 1378 1872 1531 
L 1847 1538 
L 1631 1581 
Q 1134 1678 906 1908 
Q 678 2138 678 2534 
Q 678 3038 1018 3311 
Q 1359 3584 1991 3584 
Q 2272 3584 2531 3532 
Q 2791 3481 3041 3378 
z
" transform="scale(0.015625)"/>
      <path id="DejaVuSansMono-74" d="M 1919 4494 
L 1919 3500 
L 3225 3500 
L 3225 3053 
L 1919 3053 
L 1919 1153 
Q 1919 766 2066 612 
Q 2213 459 2578 459 
L 3225 459 
L 3225 0 
L 2522 0 
Q 1875 0 1609 259 
Q 1344 519 1344 1153 
L 1344 3053 
L 409 3053 
L 409 3500 
L 1344 3500 
L 1344 4494 
L 1919 4494 
z
" transform="scale(0.015625)"/>
      <path id="DejaVuSansMono-61" d="M 2194 1759 
L 2003 1759 
Q 1500 1759 1245 1582 
Q 991 1406 991 1056 
Q 991 741 1181 566 
Q 1372 391 1709 391 
Q 2184 391 2456 720 
Q 2728 1050 2731 1631 
L 2731 1759 
L 2194 1759 
z
M 3309 1997 
L 3309 0 
L 2731 0 
L 2731 519 
Q 2547 206 2267 57 
Q 1988 -91 1588 -91 
Q 1053 -91 734 211 
Q 416 513 416 1019 
Q 416 1603 808 1906 
Q 1200 2209 1959 2209 
L 2731 2209 
L 2731 2300 
Q 2728 2719 2518 2908 
Q 2309 3097 1850 3097 
Q 1556 3097 1256 3012 
Q 956 2928 672 2766 
L 672 3341 
Q 991 3463 1283 3523 
Q 1575 3584 1850 3584 
Q 2284 3584 2592 3456 
Q 2900 3328 3091 3072 
Q 3209 2916 3259 2686 
Q 3309 2456 3309 1997 
z
" transform="scale(0.015625)"/>
      <path id="DejaVuSansMono-72" d="M 3609 2778 
Q 3425 2922 3234 2987 
Q 3044 3053 2816 3053 
Q 2278 3053 1993 2715 
Q 1709 2378 1709 1741 
L 1709 0 
L 1131 0 
L 1131 3500 
L 1709 3500 
L 1709 2816 
Q 1853 3188 2151 3386 
Q 2450 3584 2859 3584 
Q 3072 3584 3256 3531 
Q 3441 3478 3609 3366 
L 3609 2778 
z
" transform="scale(0.015625)"/>
      <path id="DejaVuSansMono-5f" d="M 3853 -1259 
L 3853 -1509 
L 0 -1509 
L 0 -1259 
L 3853 -1259 
z
" transform="scale(0.015625)"/>
      <path id="DejaVuSansMono-6e" d="M 3284 2169 
L 3284 0 
L 2706 0 
L 2706 2169 
Q 2706 2641 2540 2862 
Q 2375 3084 2022 3084 
Q 1619 3084 1401 2798 
Q 1184 2513 1184 1978 
L 1184 0 
L 609 0 
L 609 3500 
L 1184 3500 
L 1184 2975 
Q 1338 3275 1600 3429 
Q 1863 3584 2222 3584 
Q 2756 3584 3020 3232 
Q 3284 2881 3284 2169 
z
" transform="scale(0.015625)"/>
      <path id="DejaVuSansMono-64" d="M 2681 3053 
L 2681 4863 
L 3256 4863 
L 3256 0 
L 2681 0 
L 2681 441 
Q 2538 181 2298 45 
Q 2059 -91 1747 -91 
Q 1113 -91 748 401 
Q 384 894 384 1759 
Q 384 2613 750 3098 
Q 1116 3584 1747 3584 
Q 2063 3584 2303 3448 
Q 2544 3313 2681 3053 
z
M 991 1747 
Q 991 1078 1203 737 
Q 1416 397 1831 397 
Q 2247 397 2464 740 
Q 2681 1084 2681 1747 
Q 2681 2413 2464 2755 
Q 2247 3097 1831 3097 
Q 1416 3097 1203 2756 
Q 991 2416 991 1747 
z
" transform="scale(0.015625)"/>
      <path id="DejaVuSansMono-63" d="M 3316 178 
Q 3084 44 2839 -23 
Q 2594 -91 2338 -91 
Q 1525 -91 1067 396 
Q 609 884 609 1747 
Q 609 2609 1067 3096 
Q 1525 3584 2338 3584 
Q 2591 3584 2831 3518 
Q 3072 3453 3316 3316 
L 3316 2713 
Q 3088 2916 2858 3006 
Q 2628 3097 2338 3097 
Q 1797 3097 1506 2747 
Q 1216 2397 1216 1747 
Q 1216 1100 1508 748 
Q 1800 397 2338 397 
Q 2638 397 2875 489 
Q 3113 581 3316 775 
L 3316 178 
z
" transform="scale(0.015625)"/>
     </defs>
     <use xlink:href="#DejaVuSansMono-73"/>
     <use xlink:href="#DejaVuSansMono-74" transform="translate(60.205078 0)"/>
     <use xlink:href="#DejaVuSansMono-61" transform="translate(120.410156 0)"/>
     <use xlink:href="#DejaVuSansMono-72" transform="translate(180.615234 0)"/>
     <use xlink:href="#DejaVuSansMono-74" transform="translate(240.820312 0)"/>
     <use xlink:href="#DejaVuSansMono-5f" transform="translate(301.025391 0)"/>
     <use xlink:href="#DejaVuSansMono-6e" transform="translate(361.230469 0)"/>
     <use xlink:href="#DejaVuSansMono-64" transform="translate(421.435547 0)"/>
     <use xlink:href="#DejaVuSansMono-5f" transform="translate(481.640625 0)"/>
     <use xlink:href="#DejaVuSansMono-61" transform="translate(541.845703 0)"/>
     <use xlink:href="#DejaVuSansMono-72" transform="translate(602.050781 0)"/>
     <use xlink:href="#DejaVuSansMono-63" transform="translate(662.255859 0)"/>
    </g>
   </g>
   <g id="patch_4">
    <path d="M 507.992971 93.385969 
Q 495.264412 100.806171 483.501745 107.6633 
" style="fill: none; stroke: #000000; stroke-linecap: round"/>
    <path d="M 490.196153 107.233291 
L 483.501745 107.6633 
L 487.174382 102.049768 
" style="fill: none; stroke: #000000; stroke-linecap: round"/>
   </g>
   <g id="text_2">
    <!-- end_nd_arc -->
    <g transform="translate(480.806853 86.842901) scale(0.15 -0.15)">
     <defs>
      <path id="DejaVuSansMono-65" d="M 3475 1894 
L 3475 1613 
L 984 1613 
L 984 1594 
Q 984 1022 1282 709 
Q 1581 397 2125 397 
Q 2400 397 2700 484 
Q 3000 572 3341 750 
L 3341 178 
Q 3013 44 2708 -23 
Q 2403 -91 2119 -91 
Q 1303 -91 843 398 
Q 384 888 384 1747 
Q 384 2584 834 3084 
Q 1284 3584 2034 3584 
Q 2703 3584 3089 3131 
Q 3475 2678 3475 1894 
z
M 2900 2063 
Q 2888 2569 2661 2833 
Q 2434 3097 2009 3097 
Q 1594 3097 1325 2822 
Q 1056 2547 1006 2059 
L 2900 2063 
z
" transform="scale(0.015625)"/>
     </defs>
     <use xlink:href="#DejaVuSansMono-65"/>
     <use xlink:href="#DejaVuSansMono-6e" transform="translate(60.205078 0)"/>
     <use xlink:href="#DejaVuSansMono-64" transform="translate(120.410156 0)"/>
     <use xlink:href="#DejaVuSansMono-5f" transform="translate(180.615234 0)"/>
     <use xlink:href="#DejaVuSansMono-6e" transform="translate(240.820312 0)"/>
     <use xlink:href="#DejaVuSansMono-64" transform="translate(301.025391 0)"/>
     <use xlink:href="#DejaVuSansMono-5f" transform="translate(361.230469 0)"/>
     <use xlink:href="#DejaVuSansMono-61" transform="translate(421.435547 0)"/>
     <use xlink:href="#DejaVuSansMono-72" transform="translate(481.640625 0)"/>
     <use xlink:href="#DejaVuSansMono-63" transform="translate(541.845703 0)"/>
    </g>
   </g>
   <g id="text_3">
    <!-- offset -->
    <g transform="translate(492.002555 176.408521) scale(0.12 -0.12)">
     <defs>
      <path id="DejaVuSansMono-6f" d="M 1925 3097 
Q 1488 3097 1263 2756 
Q 1038 2416 1038 1747 
Q 1038 1081 1263 739 
Q 1488 397 1925 397 
Q 2366 397 2591 739 
Q 2816 1081 2816 1747 
Q 2816 2416 2591 2756 
Q 2366 3097 1925 3097 
z
M 1925 3584 
Q 2653 3584 3039 3112 
Q 3425 2641 3425 1747 
Q 3425 850 3040 379 
Q 2656 -91 1925 -91 
Q 1197 -91 812 379 
Q 428 850 428 1747 
Q 428 2641 812 3112 
Q 1197 3584 1925 3584 
z
" transform="scale(0.015625)"/>
      <path id="DejaVuSansMono-66" d="M 3322 4863 
L 3322 4384 
L 2669 4384 
Q 2359 4384 2239 4257 
Q 2119 4131 2119 3809 
L 2119 3500 
L 3322 3500 
L 3322 3053 
L 2119 3053 
L 2119 0 
L 1544 0 
L 1544 3053 
L 609 3053 
L 609 3500 
L 1544 3500 
L 1544 3744 
Q 1544 4319 1808 4591 
Q 2072 4863 2631 4863 
L 3322 4863 
z
" transform="scale(0.015625)"/>
     </defs>
     <use xlink:href="#DejaVuSansMono-6f"/>
     <use xlink:href="#DejaVuSansMono-66" transform="translate(60.205078 0)"/>
     <use xlink:href="#DejaVuSansMono-66" transform="translate(120.410156 0)"/>
     <use xlink:href="#DejaVuSansMono-73" transform="translate(180.615234 0)"/>
     <use xlink:href="#DejaVuSansMono-65" transform="translate(240.820312 0)"/>
     <use xlink:href="#DejaVuSansMono-74" transform="translate(301.025391 0)"/>
    </g>
   </g>
  </g>
 </g>
 <defs>
  <clipPath id="p78538da55e">
   <rect x="10.8" y="10.8" width="615.763636" height="266.4"/>
  </clipPath>
 </defs>
</svg>
