<?xml version="1.0" encoding="utf-8" standalone="no"?>
<!DOCTYPE svg PUBLIC "-//W3C//DTD SVG 1.1//EN"
  "http://www.w3.org/Graphics/SVG/1.1/DTD/svg11.dtd">
<svg xmlns:xlink="http://www.w3.org/1999/xlink" width="720pt" height="288pt" viewBox="0 0 720 288" xmlns="http://www.w3.org/2000/svg" version="1.1">
 <metadata>
  <rdf:RDF xmlns:dc="http://purl.org/dc/elements/1.1/" xmlns:cc="http://creativecommons.org/ns#" xmlns:rdf="http://www.w3.org/1999/02/22-rdf-syntax-ns#">
   <cc:Work>
    <dc:type rdf:resource="http://purl.org/dc/dcmitype/StillImage"/>
    <dc:date>2025-05-06T15:24:10.310531</dc:date>
    <dc:format>image/svg+xml</dc:format>
    <dc:creator>
     <cc:Agent>
      <dc:title>Matplotlib v3.10.1, https://matplotlib.org/</dc:title>
     </cc:Agent>
    </dc:creator>
   </cc:Work>
  </rdf:RDF>
 </metadata>
 <defs>
  <style type="text/css">*{stroke-linejoin: round; stroke-linecap: butt}</style>
 </defs>
 <g id="figure_1">
  <g id="patch_1">
   <path d="M 0 288 
L 720 288 
L 720 0 
L 0 0 
z
" style="fill: #ffffff"/>
  </g>
  <g id="axes_1">
   <g id="patch_2">
    <path d="M 422.993924 174.809272 
L 414.858345 176.843167 
L 414.858345 175.012661 
L 292.824653 175.012661 
L 292.824653 174.605882 
L 414.858345 174.605882 
L 414.858345 172.775377 
z
" clip-path="url(#p7323ef8ffe)" style="stroke: #000000; stroke-linejoin: miter"/>
   </g>
   <g id="patch_3">
    <path d="M 292.824653 44.64 
L 294.858547 52.775579 
L 293.028042 52.775579 
L 293.028042 174.809272 
L 292.621263 174.809272 
L 292.621263 52.775579 
L 290.790758 52.775579 
z
" clip-path="url(#p7323ef8ffe)" style="stroke: #000000; stroke-linejoin: miter"/>
   </g>
   <g id="patch_4">
    <path d="M 394.546826 170.57702 
Q 394.566177 156.872064 389.861391 144.000122 
" clip-path="url(#p7323ef8ffe)" style="fill: none; stroke: #0000ff; stroke-width: 2; stroke-linecap: round"/>
    <path d="M 396.552472 166.579848 
L 394.546826 170.57702 
L 392.552476 166.574201 
" clip-path="url(#p7323ef8ffe)" style="fill: none; stroke: #0000ff; stroke-width: 2; stroke-linecap: round"/>
    <path d="M 389.356113 148.443622 
L 389.861391 144.000122 
L 393.113024 147.070445 
" clip-path="url(#p7323ef8ffe)" style="fill: none; stroke: #0000ff; stroke-width: 2; stroke-linecap: round"/>
   </g>
   <g id="line2d_1">
    <path d="M 559.094076 73.838993 
L 552.190186 74.637579 
L 544.385177 75.565017 
L 535.701249 76.600242 
L 526.17669 77.703346 
L 515.843776 78.845264 
L 504.758116 80.036059 
L 492.973194 81.26925 
L 480.552889 82.551458 
L 467.55931 83.899901 
L 454.062834 85.318833 
L 440.135476 86.825332 
L 425.854707 88.443147 
L 411.299041 90.186989 
L 396.545706 92.076368 
L 381.675644 94.120781 
L 366.770152 96.342586 
L 351.908888 98.756079 
L 337.182534 101.397515 
L 322.679342 104.308363 
L 308.485577 107.509173 
L 294.680102 111.027514 
L 281.345602 114.889568 
L 268.560347 119.105807 
L 256.40216 123.712837 
L 244.939125 128.720508 
L 234.242555 134.120182 
L 224.365245 139.927272 
L 215.355801 146.098114 
L 207.249377 152.572296 
L 200.065728 159.286353 
L 193.825681 166.154784 
L 188.5306 173.086188 
L 184.192933 179.985128 
L 180.809946 186.770352 
L 178.378795 193.351986 
L 176.90343 199.681411 
L 176.362689 205.652913 
L 176.787305 211.303355 
L 178.316053 217.002127 
L 180.379554 221.172978 
L 183.554144 225.411271 
L 187.706611 229.362907 
L 192.812067 233.007075 
L 198.85077 236.337111 
L 205.78566 239.310658 
L 213.562537 241.860869 
L 222.125702 243.908452 
L 231.398708 245.373009 
L 241.317586 246.173933 
L 251.804467 246.24 
L 262.797856 245.520003 
L 274.222254 243.963502 
L 286.009577 241.560646 
L 298.104385 238.288759 
L 310.432307 234.148071 
L 322.926787 229.132936 
L 335.525168 223.248412 
L 348.155024 216.500081 
L 360.754398 208.918719 
L 373.270862 200.54938 
L 385.651541 191.463257 
L 397.866617 181.779423 
L 409.897754 171.66039 
L 421.745986 161.313567 
L 433.427406 150.984171 
L 444.959712 140.933715 
L 456.359168 131.399561 
L 467.623643 122.57685 
L 478.722968 114.571799 
L 489.637995 107.512582 
L 500.289862 101.371631 
L 510.612564 96.121021 
L 520.542081 91.753752 
L 530.008236 88.230434 
L 538.924813 85.45691 
L 547.217795 83.34757 
L 554.821071 81.865873 
L 561.637311 80.826472 
" clip-path="url(#p7323ef8ffe)" style="fill: none; stroke: #000000; stroke-width: 1.5; stroke-linecap: square"/>
   </g>
   <g id="line2d_2">
    <path d="M 178.150492 216.547253 
L 220.622404 201.088741 
L 263.094315 185.63023 
L 305.566226 170.171718 
L 348.038137 154.713207 
L 390.510048 139.254695 
L 432.981959 123.796184 
L 475.45387 108.337672 
L 517.925781 92.879161 
L 560.397693 77.42065 
" clip-path="url(#p7323ef8ffe)" style="fill: none; stroke-dasharray: 5.55,2.4; stroke-dashoffset: 0; stroke: #000000; stroke-width: 1.5"/>
   </g>
   <g id="line2d_3">
    <defs>
     <path id="m82eb2c62e8" d="M 0 3 
C 0.795609 3 1.55874 2.683901 2.12132 2.12132 
C 2.683901 1.55874 3 0.795609 3 0 
C 3 -0.795609 2.683901 -1.55874 2.12132 -2.12132 
C 1.55874 -2.683901 0.795609 -3 0 -3 
C -0.795609 -3 -1.55874 -2.683901 -2.12132 -2.12132 
C -2.683901 -1.55874 -3 -0.795609 -3 0 
C -3 0.795609 -2.683901 1.55874 -2.12132 2.12132 
C -1.55874 2.683901 -0.795609 3 0 3 
z
" style="stroke: #000000"/>
    </defs>
    <g clip-path="url(#p7323ef8ffe)">
     <use xlink:href="#m82eb2c62e8" x="292.824653" y="174.809272" style="stroke: #000000"/>
    </g>
   </g>
   <g id="patch_5">
    <path d="M 215.775914 99.209983 
Q 251.55257 134.276091 286.530768 168.559599 
" style="fill: none; stroke: #000000; stroke-linecap: round"/>
    <path d="M 285.074074 164.331355 
L 286.530768 168.559599 
L 282.274157 167.188007 
" style="fill: none; stroke: #000000; stroke-linecap: round"/>
   </g>
   <g id="text_1">
    <!-- reference_axis (x, y, z) -->
    <g transform="translate(150.452012 93.453477) scale(0.1 -0.1)">
     <defs>
      <path id="DejaVuSans-72" d="M 2631 2963 
Q 2534 3019 2420 3045 
Q 2306 3072 2169 3072 
Q 1681 3072 1420 2755 
Q 1159 2438 1159 1844 
L 1159 0 
L 581 0 
L 581 3500 
L 1159 3500 
L 1159 2956 
Q 1341 3275 1631 3429 
Q 1922 3584 2338 3584 
Q 2397 3584 2469 3576 
Q 2541 3569 2628 3553 
L 2631 2963 
z
" transform="scale(0.015625)"/>
      <path id="DejaVuSans-65" d="M 3597 1894 
L 3597 1613 
L 953 1613 
Q 991 1019 1311 708 
Q 1631 397 2203 397 
Q 2534 397 2845 478 
Q 3156 559 3463 722 
L 3463 178 
Q 3153 47 2828 -22 
Q 2503 -91 2169 -91 
Q 1331 -91 842 396 
Q 353 884 353 1716 
Q 353 2575 817 3079 
Q 1281 3584 2069 3584 
Q 2775 3584 3186 3129 
Q 3597 2675 3597 1894 
z
M 3022 2063 
Q 3016 2534 2758 2815 
Q 2500 3097 2075 3097 
Q 1594 3097 1305 2825 
Q 1016 2553 972 2059 
L 3022 2063 
z
" transform="scale(0.015625)"/>
      <path id="DejaVuSans-66" d="M 2375 4863 
L 2375 4384 
L 1825 4384 
Q 1516 4384 1395 4259 
Q 1275 4134 1275 3809 
L 1275 3500 
L 2222 3500 
L 2222 3053 
L 1275 3053 
L 1275 0 
L 697 0 
L 697 3053 
L 147 3053 
L 147 3500 
L 697 3500 
L 697 3744 
Q 697 4328 969 4595 
Q 1241 4863 1831 4863 
L 2375 4863 
z
" transform="scale(0.015625)"/>
      <path id="DejaVuSans-6e" d="M 3513 2113 
L 3513 0 
L 2938 0 
L 2938 2094 
Q 2938 2591 2744 2837 
Q 2550 3084 2163 3084 
Q 1697 3084 1428 2787 
Q 1159 2491 1159 1978 
L 1159 0 
L 581 0 
L 581 3500 
L 1159 3500 
L 1159 2956 
Q 1366 3272 1645 3428 
Q 1925 3584 2291 3584 
Q 2894 3584 3203 3211 
Q 3513 2838 3513 2113 
z
" transform="scale(0.015625)"/>
      <path id="DejaVuSans-63" d="M 3122 3366 
L 3122 2828 
Q 2878 2963 2633 3030 
Q 2388 3097 2138 3097 
Q 1578 3097 1268 2742 
Q 959 2388 959 1747 
Q 959 1106 1268 751 
Q 1578 397 2138 397 
Q 2388 397 2633 464 
Q 2878 531 3122 666 
L 3122 134 
Q 2881 22 2623 -34 
Q 2366 -91 2075 -91 
Q 1284 -91 818 406 
Q 353 903 353 1747 
Q 353 2603 823 3093 
Q 1294 3584 2113 3584 
Q 2378 3584 2631 3529 
Q 2884 3475 3122 3366 
z
" transform="scale(0.015625)"/>
      <path id="DejaVuSans-5f" d="M 3263 -1063 
L 3263 -1509 
L -63 -1509 
L -63 -1063 
L 3263 -1063 
z
" transform="scale(0.015625)"/>
      <path id="DejaVuSans-61" d="M 2194 1759 
Q 1497 1759 1228 1600 
Q 959 1441 959 1056 
Q 959 750 1161 570 
Q 1363 391 1709 391 
Q 2188 391 2477 730 
Q 2766 1069 2766 1631 
L 2766 1759 
L 2194 1759 
z
M 3341 1997 
L 3341 0 
L 2766 0 
L 2766 531 
Q 2569 213 2275 61 
Q 1981 -91 1556 -91 
Q 1019 -91 701 211 
Q 384 513 384 1019 
Q 384 1609 779 1909 
Q 1175 2209 1959 2209 
L 2766 2209 
L 2766 2266 
Q 2766 2663 2505 2880 
Q 2244 3097 1772 3097 
Q 1472 3097 1187 3025 
Q 903 2953 641 2809 
L 641 3341 
Q 956 3463 1253 3523 
Q 1550 3584 1831 3584 
Q 2591 3584 2966 3190 
Q 3341 2797 3341 1997 
z
" transform="scale(0.015625)"/>
      <path id="DejaVuSans-78" d="M 3513 3500 
L 2247 1797 
L 3578 0 
L 2900 0 
L 1881 1375 
L 863 0 
L 184 0 
L 1544 1831 
L 300 3500 
L 978 3500 
L 1906 2253 
L 2834 3500 
L 3513 3500 
z
" transform="scale(0.015625)"/>
      <path id="DejaVuSans-69" d="M 603 3500 
L 1178 3500 
L 1178 0 
L 603 0 
L 603 3500 
z
M 603 4863 
L 1178 4863 
L 1178 4134 
L 603 4134 
L 603 4863 
z
" transform="scale(0.015625)"/>
      <path id="DejaVuSans-73" d="M 2834 3397 
L 2834 2853 
Q 2591 2978 2328 3040 
Q 2066 3103 1784 3103 
Q 1356 3103 1142 2972 
Q 928 2841 928 2578 
Q 928 2378 1081 2264 
Q 1234 2150 1697 2047 
L 1894 2003 
Q 2506 1872 2764 1633 
Q 3022 1394 3022 966 
Q 3022 478 2636 193 
Q 2250 -91 1575 -91 
Q 1294 -91 989 -36 
Q 684 19 347 128 
L 347 722 
Q 666 556 975 473 
Q 1284 391 1588 391 
Q 1994 391 2212 530 
Q 2431 669 2431 922 
Q 2431 1156 2273 1281 
Q 2116 1406 1581 1522 
L 1381 1569 
Q 847 1681 609 1914 
Q 372 2147 372 2553 
Q 372 3047 722 3315 
Q 1072 3584 1716 3584 
Q 2034 3584 2315 3537 
Q 2597 3491 2834 3397 
z
" transform="scale(0.015625)"/>
      <path id="DejaVuSans-20" transform="scale(0.015625)"/>
      <path id="DejaVuSans-28" d="M 1984 4856 
Q 1566 4138 1362 3434 
Q 1159 2731 1159 2009 
Q 1159 1288 1364 580 
Q 1569 -128 1984 -844 
L 1484 -844 
Q 1016 -109 783 600 
Q 550 1309 550 2009 
Q 550 2706 781 3412 
Q 1013 4119 1484 4856 
L 1984 4856 
z
" transform="scale(0.015625)"/>
      <path id="DejaVuSans-2c" d="M 750 794 
L 1409 794 
L 1409 256 
L 897 -744 
L 494 -744 
L 750 256 
L 750 794 
z
" transform="scale(0.015625)"/>
      <path id="DejaVuSans-79" d="M 2059 -325 
Q 1816 -950 1584 -1140 
Q 1353 -1331 966 -1331 
L 506 -1331 
L 506 -850 
L 844 -850 
Q 1081 -850 1212 -737 
Q 1344 -625 1503 -206 
L 1606 56 
L 191 3500 
L 800 3500 
L 1894 763 
L 2988 3500 
L 3597 3500 
L 2059 -325 
z
" transform="scale(0.015625)"/>
      <path id="DejaVuSans-7a" d="M 353 3500 
L 3084 3500 
L 3084 2975 
L 922 459 
L 3084 459 
L 3084 0 
L 275 0 
L 275 525 
L 2438 3041 
L 353 3041 
L 353 3500 
z
" transform="scale(0.015625)"/>
      <path id="DejaVuSans-29" d="M 513 4856 
L 1013 4856 
Q 1481 4119 1714 3412 
Q 1947 2706 1947 2009 
Q 1947 1309 1714 600 
Q 1481 -109 1013 -844 
L 513 -844 
Q 928 -128 1133 580 
Q 1338 1288 1338 2009 
Q 1338 2731 1133 3434 
Q 928 4138 513 4856 
z
" transform="scale(0.015625)"/>
     </defs>
     <use xlink:href="#DejaVuSans-72"/>
     <use xlink:href="#DejaVuSans-65" transform="translate(38.863281 0)"/>
     <use xlink:href="#DejaVuSans-66" transform="translate(100.386719 0)"/>
     <use xlink:href="#DejaVuSans-65" transform="translate(135.591797 0)"/>
     <use xlink:href="#DejaVuSans-72" transform="translate(197.115234 0)"/>
     <use xlink:href="#DejaVuSans-65" transform="translate(235.978516 0)"/>
     <use xlink:href="#DejaVuSans-6e" transform="translate(297.501953 0)"/>
     <use xlink:href="#DejaVuSans-63" transform="translate(360.880859 0)"/>
     <use xlink:href="#DejaVuSans-65" transform="translate(415.861328 0)"/>
     <use xlink:href="#DejaVuSans-5f" transform="translate(477.384766 0)"/>
     <use xlink:href="#DejaVuSans-61" transform="translate(527.384766 0)"/>
     <use xlink:href="#DejaVuSans-78" transform="translate(588.664062 0)"/>
     <use xlink:href="#DejaVuSans-69" transform="translate(647.84375 0)"/>
     <use xlink:href="#DejaVuSans-73" transform="translate(675.626953 0)"/>
     <use xlink:href="#DejaVuSans-20" transform="translate(727.726562 0)"/>
     <use xlink:href="#DejaVuSans-28" transform="translate(759.513672 0)"/>
     <use xlink:href="#DejaVuSans-78" transform="translate(798.527344 0)"/>
     <use xlink:href="#DejaVuSans-2c" transform="translate(857.707031 0)"/>
     <use xlink:href="#DejaVuSans-20" transform="translate(889.494141 0)"/>
     <use xlink:href="#DejaVuSans-79" transform="translate(921.28125 0)"/>
     <use xlink:href="#DejaVuSans-2c" transform="translate(980.460938 0)"/>
     <use xlink:href="#DejaVuSans-20" transform="translate(1012.248047 0)"/>
     <use xlink:href="#DejaVuSans-7a" transform="translate(1044.035156 0)"/>
     <use xlink:href="#DejaVuSans-29" transform="translate(1096.525391 0)"/>
    </g>
   </g>
   <g id="text_2">
    <!-- x -->
    <g transform="translate(292.824653 44.64) scale(0.12 -0.12)">
     <use xlink:href="#DejaVuSans-78"/>
    </g>
   </g>
   <g id="text_3">
    <!-- y -->
    <g transform="translate(422.993924 174.809272) scale(0.12 -0.12)">
     <use xlink:href="#DejaVuSans-79"/>
    </g>
   </g>
   <g id="text_4">
    <!-- twist, positive towards feather -->
    <g transform="translate(406.722765 154.470323) scale(0.12 -0.12)">
     <defs>
      <path id="DejaVuSans-74" d="M 1172 4494 
L 1172 3500 
L 2356 3500 
L 2356 3053 
L 1172 3053 
L 1172 1153 
Q 1172 725 1289 603 
Q 1406 481 1766 481 
L 2356 481 
L 2356 0 
L 1766 0 
Q 1100 0 847 248 
Q 594 497 594 1153 
L 594 3053 
L 172 3053 
L 172 3500 
L 594 3500 
L 594 4494 
L 1172 4494 
z
" transform="scale(0.015625)"/>
      <path id="DejaVuSans-77" d="M 269 3500 
L 844 3500 
L 1563 769 
L 2278 3500 
L 2956 3500 
L 3675 769 
L 4391 3500 
L 4966 3500 
L 4050 0 
L 3372 0 
L 2619 2869 
L 1863 0 
L 1184 0 
L 269 3500 
z
" transform="scale(0.015625)"/>
      <path id="DejaVuSans-70" d="M 1159 525 
L 1159 -1331 
L 581 -1331 
L 581 3500 
L 1159 3500 
L 1159 2969 
Q 1341 3281 1617 3432 
Q 1894 3584 2278 3584 
Q 2916 3584 3314 3078 
Q 3713 2572 3713 1747 
Q 3713 922 3314 415 
Q 2916 -91 2278 -91 
Q 1894 -91 1617 61 
Q 1341 213 1159 525 
z
M 3116 1747 
Q 3116 2381 2855 2742 
Q 2594 3103 2138 3103 
Q 1681 3103 1420 2742 
Q 1159 2381 1159 1747 
Q 1159 1113 1420 752 
Q 1681 391 2138 391 
Q 2594 391 2855 752 
Q 3116 1113 3116 1747 
z
" transform="scale(0.015625)"/>
      <path id="DejaVuSans-6f" d="M 1959 3097 
Q 1497 3097 1228 2736 
Q 959 2375 959 1747 
Q 959 1119 1226 758 
Q 1494 397 1959 397 
Q 2419 397 2687 759 
Q 2956 1122 2956 1747 
Q 2956 2369 2687 2733 
Q 2419 3097 1959 3097 
z
M 1959 3584 
Q 2709 3584 3137 3096 
Q 3566 2609 3566 1747 
Q 3566 888 3137 398 
Q 2709 -91 1959 -91 
Q 1206 -91 779 398 
Q 353 888 353 1747 
Q 353 2609 779 3096 
Q 1206 3584 1959 3584 
z
" transform="scale(0.015625)"/>
      <path id="DejaVuSans-76" d="M 191 3500 
L 800 3500 
L 1894 563 
L 2988 3500 
L 3597 3500 
L 2284 0 
L 1503 0 
L 191 3500 
z
" transform="scale(0.015625)"/>
      <path id="DejaVuSans-64" d="M 2906 2969 
L 2906 4863 
L 3481 4863 
L 3481 0 
L 2906 0 
L 2906 525 
Q 2725 213 2448 61 
Q 2172 -91 1784 -91 
Q 1150 -91 751 415 
Q 353 922 353 1747 
Q 353 2572 751 3078 
Q 1150 3584 1784 3584 
Q 2172 3584 2448 3432 
Q 2725 3281 2906 2969 
z
M 947 1747 
Q 947 1113 1208 752 
Q 1469 391 1925 391 
Q 2381 391 2643 752 
Q 2906 1113 2906 1747 
Q 2906 2381 2643 2742 
Q 2381 3103 1925 3103 
Q 1469 3103 1208 2742 
Q 947 2381 947 1747 
z
" transform="scale(0.015625)"/>
      <path id="DejaVuSans-68" d="M 3513 2113 
L 3513 0 
L 2938 0 
L 2938 2094 
Q 2938 2591 2744 2837 
Q 2550 3084 2163 3084 
Q 1697 3084 1428 2787 
Q 1159 2491 1159 1978 
L 1159 0 
L 581 0 
L 581 4863 
L 1159 4863 
L 1159 2956 
Q 1366 3272 1645 3428 
Q 1925 3584 2291 3584 
Q 2894 3584 3203 3211 
Q 3513 2838 3513 2113 
z
" transform="scale(0.015625)"/>
     </defs>
     <use xlink:href="#DejaVuSans-74"/>
     <use xlink:href="#DejaVuSans-77" transform="translate(39.208984 0)"/>
     <use xlink:href="#DejaVuSans-69" transform="translate(120.996094 0)"/>
     <use xlink:href="#DejaVuSans-73" transform="translate(148.779297 0)"/>
     <use xlink:href="#DejaVuSans-74" transform="translate(200.878906 0)"/>
     <use xlink:href="#DejaVuSans-2c" transform="translate(240.087891 0)"/>
     <use xlink:href="#DejaVuSans-20" transform="translate(271.875 0)"/>
     <use xlink:href="#DejaVuSans-70" transform="translate(303.662109 0)"/>
     <use xlink:href="#DejaVuSans-6f" transform="translate(367.138672 0)"/>
     <use xlink:href="#DejaVuSans-73" transform="translate(428.320312 0)"/>
     <use xlink:href="#DejaVuSans-69" transform="translate(480.419922 0)"/>
     <use xlink:href="#DejaVuSans-74" transform="translate(508.203125 0)"/>
     <use xlink:href="#DejaVuSans-69" transform="translate(547.412109 0)"/>
     <use xlink:href="#DejaVuSans-76" transform="translate(575.195312 0)"/>
     <use xlink:href="#DejaVuSans-65" transform="translate(634.375 0)"/>
     <use xlink:href="#DejaVuSans-20" transform="translate(695.898438 0)"/>
     <use xlink:href="#DejaVuSans-74" transform="translate(727.685547 0)"/>
     <use xlink:href="#DejaVuSans-6f" transform="translate(766.894531 0)"/>
     <use xlink:href="#DejaVuSans-77" transform="translate(828.076172 0)"/>
     <use xlink:href="#DejaVuSans-61" transform="translate(909.863281 0)"/>
     <use xlink:href="#DejaVuSans-72" transform="translate(971.142578 0)"/>
     <use xlink:href="#DejaVuSans-64" transform="translate(1010.505859 0)"/>
     <use xlink:href="#DejaVuSans-73" transform="translate(1073.982422 0)"/>
     <use xlink:href="#DejaVuSans-20" transform="translate(1126.082031 0)"/>
     <use xlink:href="#DejaVuSans-66" transform="translate(1157.869141 0)"/>
     <use xlink:href="#DejaVuSans-65" transform="translate(1193.074219 0)"/>
     <use xlink:href="#DejaVuSans-61" transform="translate(1254.597656 0)"/>
     <use xlink:href="#DejaVuSans-74" transform="translate(1315.876953 0)"/>
     <use xlink:href="#DejaVuSans-68" transform="translate(1355.085938 0)"/>
     <use xlink:href="#DejaVuSans-65" transform="translate(1418.464844 0)"/>
     <use xlink:href="#DejaVuSans-72" transform="translate(1479.988281 0)"/>
    </g>
   </g>
   <g id="patch_6">
    <path d="M 189.087312 234.210833 
Q 242.445532 214.790029 295.803752 195.369225 
" style="fill: none; stroke: #0000ff; stroke-width: 2; stroke-linecap: round"/>
    <path d="M 193.530123 234.722137 
L 189.087312 234.210833 
L 192.162043 230.963367 
" style="fill: none; stroke: #0000ff; stroke-width: 2; stroke-linecap: round"/>
    <path d="M 291.360942 194.85792 
L 295.803752 195.369225 
L 292.729022 198.616691 
" style="fill: none; stroke: #0000ff; stroke-width: 2; stroke-linecap: round"/>
   </g>
   <g id="text_5">
    <!-- section_offset_x -->
    <g transform="translate(248.078965 223.622749) scale(0.1 -0.1)">
     <use xlink:href="#DejaVuSans-73"/>
     <use xlink:href="#DejaVuSans-65" transform="translate(52.099609 0)"/>
     <use xlink:href="#DejaVuSans-63" transform="translate(113.623047 0)"/>
     <use xlink:href="#DejaVuSans-74" transform="translate(168.603516 0)"/>
     <use xlink:href="#DejaVuSans-69" transform="translate(207.8125 0)"/>
     <use xlink:href="#DejaVuSans-6f" transform="translate(235.595703 0)"/>
     <use xlink:href="#DejaVuSans-6e" transform="translate(296.777344 0)"/>
     <use xlink:href="#DejaVuSans-5f" transform="translate(360.15625 0)"/>
     <use xlink:href="#DejaVuSans-6f" transform="translate(410.15625 0)"/>
     <use xlink:href="#DejaVuSans-66" transform="translate(471.337891 0)"/>
     <use xlink:href="#DejaVuSans-66" transform="translate(506.542969 0)"/>
     <use xlink:href="#DejaVuSans-73" transform="translate(541.748047 0)"/>
     <use xlink:href="#DejaVuSans-65" transform="translate(593.847656 0)"/>
     <use xlink:href="#DejaVuSans-74" transform="translate(655.371094 0)"/>
     <use xlink:href="#DejaVuSans-5f" transform="translate(694.580078 0)"/>
     <use xlink:href="#DejaVuSans-78" transform="translate(744.580078 0)"/>
    </g>
   </g>
  </g>
 </g>
 <defs>
  <clipPath id="p7323ef8ffe">
   <rect x="90" y="34.56" width="558" height="221.76"/>
  </clipPath>
 </defs>
</svg>
